<?xml version="1.0" encoding="UTF-8"?>
<svg width="883px" height="291px" viewBox="0 0 883 291" version="1.1" xmlns="http://www.w3.org/2000/svg" xmlns:xlink="http://www.w3.org/1999/xlink">
    <title>gs-logo</title>
    <g id="Page-1" stroke="none" stroke-width="1" fill="none" fill-rule="evenodd">
        <g id="gs-logo">
            <g id="Group_52">
                <g id="Group_41" fill="#FFFFFF" fill-rule="nonzero">
                    <path d="M0,145.5 C0,65.2769583 48.9988011,0 109.530296,0 C170.061791,0 219,65.475 219,145.5 C219,225.525 170.021396,291 109.530296,291 C49.0391958,291 0,225.929167 0,145.5 Z" id="Path"></path>
                </g>
                <g id="Group_40" transform="translate(33.7666, 38.8106)">
                    <path d="M150.586851,118.531505 C151.885981,124.233743 152.551147,130.062192 152.570232,135.910672 C152.44315,172.314741 126.637078,203.561647 90.9288865,210.548197 C55.2206945,217.534747 19.5513775,198.315918 5.72782514,164.641385 C-8.09572718,130.966851 3.77489812,92.211448 34.0824436,72.0687826 C64.389989,51.9261171 104.696974,56.0038141 130.361213,81.8089218 L117.935795,94.4391301 C106.998658,83.2604313 91.9920015,77.0068141 76.3575051,77.1125051 C52.5574923,77.1108796 31.1010649,91.4570035 21.9969754,113.458859 C12.8928859,135.460714 17.9348412,160.783449 34.7709268,177.614799 C51.6070124,194.446149 76.9201472,199.469967 98.9025454,190.342798 C120.884944,181.215629 135.205587,159.735728 135.184343,135.922797 L112.967244,135.922797 L112.967244,118.54363 L150.586851,118.531505 Z" id="Path-2" fill="#A70A2E"></path>
                    <path d="M63.7301142,57.0900885 C55.2429957,51.1564232 52.0942197,40.0707733 56.1939347,30.5580498 C60.2936497,21.0453262 70.5121402,15.7268506 80.6505419,17.8289809 C90.7889436,19.9311112 98.0535233,28.8745855 98.0373539,39.2340051 L115.289941,39.2340051 C115.327104,20.6782079 102.340515,4.64488287 84.1894296,0.837117455 C66.0383442,-2.97064797 47.7087393,6.49311284 40.2933706,23.5010976 C32.8780019,40.5090824 38.4138195,60.3893164 53.5506436,71.1106301 L100.812471,102.857922 C110.756731,111.002744 116.667724,123.07309 117.006717,135.926838 C117.602998,150.928983 109.943687,165.054056 97.0487827,172.732664 C84.1538782,180.411272 68.0925532,180.411272 55.1976488,172.732664 C42.3027443,165.054056 34.643433,150.928983 35.2397148,135.926838 C35.3617388,129.944535 36.6416219,124.04262 39.0085427,118.547672 L22.2002977,118.547672 C13.3478722,145.997249 26.5626604,175.714018 52.8682062,187.512162 C79.1737521,199.310306 110.138467,189.408224 124.728839,164.532139 C139.319211,139.656054 132.85866,107.779375 109.735666,90.5550885 L63.7301142,57.0900885 Z" id="Path-3" fill="#FAB900"></path>
                    <path d="M134.986409,135.922797 L112.975323,135.922797 L112.975323,118.54363 L150.586851,118.54363 C151.885981,124.245868 152.551147,130.074317 152.570232,135.922797 L134.986409,135.922797 Z" id="Path-4" fill="#A70A2E"></path>
                    <path d="M55.7359982,136.120838 L52.2337755,136.120838 L52.2337755,123.822047 L48.0004084,123.822047 L48.0004084,121.506172 C48.7260776,121.570828 49.4560543,121.570828 50.1817235,121.506172 C50.7692055,121.391171 51.3297251,121.166293 51.8338678,120.843338 C52.2494957,120.559411 52.6084365,120.200275 52.8922095,119.784422 C53.176121,119.444046 53.3593938,119.031109 53.4213804,118.59213 L55.7359982,118.59213 L55.7359982,136.120838 Z" id="Path-5" fill="#1D1D1B"></path>
                    <path d="M62.805075,131.95388 C62.7569461,132.422245 62.9285147,132.886478 63.2696143,133.210838 C63.6226347,133.656992 64.1552832,133.923461 64.7238244,133.938338 L64.7238244,133.938338 C65.2761828,133.943612 65.8131638,133.756424 66.2426661,133.40888 C66.6577551,133.152904 66.9640582,132.752911 67.1030737,132.285297 C67.3070148,131.869014 67.4433727,131.422881 67.5070209,130.963672 C67.5610157,130.546427 67.5610157,130.123958 67.5070209,129.706713 C67.5436985,129.399291 67.5436985,129.088594 67.5070209,128.781172 C66.9404849,129.596382 66.0494823,130.126853 65.0631401,130.236172 L63.2130617,130.236172 C62.6187756,130.042077 62.0605653,129.751213 61.5609175,129.375297 C60.9153402,128.816096 60.3773322,128.143563 59.9734048,127.390838 C59.6154615,126.394087 59.4363185,125.341906 59.4442339,124.282797 C59.42002,123.116504 59.6690325,121.960735 60.1713389,120.908005 C60.6631074,119.999758 61.3954653,119.244628 62.2880225,118.725505 C63.1628692,118.189232 64.1704945,117.909184 65.1964427,117.917006 L66.1214819,117.917006 C67.044278,118.005665 67.930261,118.323847 68.6986653,118.842713 C69.7066021,119.336393 70.4361451,120.261082 70.6820463,121.35663 C71.0409966,122.132353 71.2859012,122.955952 71.4091513,123.801838 C71.5102325,124.742182 71.5102325,125.690661 71.4091513,126.631005 C71.4059065,127.964082 71.2705958,129.293554 71.0052041,130.599922 C70.768303,131.795874 70.3672922,132.953317 69.8135597,134.03938 C69.3253737,134.96259 68.5313198,135.687057 67.567613,136.088505 C66.6611801,136.421549 65.7054427,136.600505 64.7399823,136.617963 C63.1551793,136.757036 61.601768,136.116339 60.5752862,134.900255 C59.777843,134.120362 59.3453141,133.040653 59.3836418,131.925588 L62.805075,131.95388 Z M64.9863901,120.778672 C64.3341631,120.751938 63.70425,121.018869 63.2696143,121.506172 C62.918866,121.891376 62.6446794,122.339914 62.4617198,122.827797 C62.3925376,123.265619 62.3925376,123.711599 62.4617198,124.149422 C62.3926366,124.565557 62.3926366,124.990245 62.4617198,125.40638 C62.6316025,125.881571 62.9079603,126.311541 63.2696143,126.663338 C63.7664498,127.133552 64.437472,127.373961 65.1196927,127.326172 C65.7811169,127.363568 66.4281748,127.123353 66.9051395,126.663338 C67.2667935,126.311541 67.5431513,125.881571 67.713034,125.40638 C67.7824065,125.01198 67.7824065,124.608488 67.713034,124.214088 C67.7873014,123.687237 67.7873014,123.152565 67.713034,122.625713 C67.6272882,122.201816 67.4211059,121.811681 67.1192316,121.50213 C66.8574733,121.287814 66.5680721,121.109729 66.2588239,120.972672 C65.856021,120.829054 65.4299727,120.761891 65.002548,120.77463 L64.9863901,120.778672 Z" id="Shape" fill="#1D1D1B"></path>
                    <path d="M74.903295,134.932588 C74.1822123,134.007929 73.7044427,132.917077 73.5137165,131.75988 C72.9846535,128.829133 72.9846535,125.827253 73.5137165,122.896505 C73.6692833,121.792285 74.1014414,120.745366 74.7699924,119.85313 C75.2854772,119.195556 75.9715526,118.692254 76.7533734,118.39813 C77.5261704,118.072645 78.3589959,117.914253 79.1972543,117.933338 C80.0570167,117.923255 80.9104835,118.081136 81.7098061,118.39813 C82.491627,118.692254 83.1777024,119.195556 83.6931871,119.85313 C84.3665513,120.716636 84.7999352,121.742822 84.9494631,122.827797 C85.2329044,124.310138 85.3682201,125.817019 85.3534103,127.326172 C85.3602001,128.81759 85.2249398,130.306262 84.9494631,131.772005 C84.7938963,132.876226 84.3617382,133.923145 83.6931871,134.81538 C83.1419279,135.434808 82.466026,135.930647 81.7098061,136.27038 C80.9018774,136.549174 80.0518077,136.685915 79.1972543,136.674547 C78.3660158,136.674483 77.5404206,136.537947 76.7533734,136.27038 C76.0390218,135.985856 75.4042161,135.532375 74.903295,134.948755 L74.903295,134.932588 Z M81.511872,132.285297 C81.9388374,130.668715 82.117273,128.996506 82.0410429,127.326172 C82.1071398,125.776015 81.9960069,124.223377 81.7098061,122.698463 C81.5255513,122.18281 81.1780504,121.741457 80.7201354,121.441505 C80.2862506,121.335132 79.8331127,121.335132 79.3992279,121.441505 C78.9862479,121.343068 78.555932,121.343068 78.142952,121.441505 C77.670093,121.724801 77.3178536,122.172173 77.1532812,122.698463 C76.8670805,124.223377 76.7559476,125.776015 76.8220445,127.326172 C76.7562297,128.854877 76.8673807,130.386068 77.1532812,131.889213 C77.3178536,132.415504 77.670093,132.862875 78.142952,133.146172 C78.555932,133.244609 78.9862479,133.244609 79.3992279,133.146172 C79.8363243,133.221356 80.283039,133.221356 80.7201354,133.146172 C81.0095347,132.934522 81.2188226,132.631103 81.3139378,132.285297 L81.511872,132.285297 Z" id="Shape-2" fill="#1D1D1B"></path>
                    <path d="M90.7016719,131.489088 C90.5043262,132.022413 90.5043262,132.608805 90.7016719,133.14213 C91.2953669,133.627982 92.0537555,133.86547 92.8183554,133.804963 C93.6272152,133.856423 94.4040542,133.480823 94.866368,132.814755 C95.2778104,132.090366 95.4831689,131.267088 95.4601704,130.434213 C95.547814,129.646529 95.3608871,128.852729 94.9309995,128.187047 C94.4752642,127.42171 93.6395783,126.96493 92.7496844,126.994755 L92.7496844,126.994755 C92.2978271,126.987105 91.8561293,127.129207 91.4934085,127.398922 C91.1410713,127.623649 90.8606568,127.944898 90.685514,128.324463 L87.5145281,128.324463 L89.1020408,118.402172 L98.6311563,118.402172 L98.6311563,121.57488 L91.2793164,121.57488 L90.685514,125.21238 L91.5459216,124.747588 L92.4063293,124.343422 L94.5876444,124.343422 L96.2397886,124.808213 C97.1552878,125.234089 97.9008762,125.955881 98.3564722,126.857338 C99.5907139,129.054708 99.5907139,131.736928 98.3564722,133.934297 C97.8469877,134.829382 97.1186639,135.580352 96.2397886,136.116797 C95.3038932,136.673507 94.2190504,136.927574 93.1334343,136.844297 C92.2609178,136.905554 91.3849273,136.792905 90.5562509,136.51288 C89.9200246,136.234362 89.3203884,135.878728 88.770804,135.453963 C88.2253398,135.021717 87.7755399,134.480838 87.4498965,133.865588 C87.1121273,133.189432 86.9522449,132.438272 86.9853572,131.683088 L90.7016719,131.489088 Z" id="Path-6" fill="#1D1D1B"></path>
                </g>
            </g>
            <g id="Group_42" transform="translate(317, 101)" fill-rule="nonzero">
                <path d="M65.8980268,28.0530518 C66.3926836,26.3715803 66.3043635,24.5720329 65.6474362,22.9471937 C65.029488,21.7881702 64.0298146,20.8789825 62.8181879,20.3740355 C61.4199243,19.8047167 59.9298258,19.4948814 58.4207277,19.4596742 L53.2068272,19.4596742 C49.8173637,19.3638242 46.4299288,19.7120212 43.1306615,20.4954109 C40.8604734,21.0685431 38.7738211,22.2117855 37.0679865,23.8170507 C35.4150108,25.4659853 34.128595,27.4458034 33.2929609,29.626886 C32.3391001,32.0746231 31.3852392,35.0645035 30.3505427,38.552023 L26.6603945,52.7488978 C25.7895123,55.7473039 25.3019572,58.8441476 25.2093943,61.9653358 C25.1155862,63.827774 25.7390893,65.6552726 26.9514029,67.0711939 C28.2726497,68.3226759 29.9568673,69.1217125 31.761125,69.3530512 C34.3044215,69.7154598 36.8717655,69.8818286 39.4405133,69.8506903 C41.9553184,69.9001384 44.4689781,69.7050222 46.9461049,69.2680884 C48.8533133,68.9588876 50.6566652,68.1896096 52.2004232,67.0266895 C53.7103876,65.7744822 54.9401476,64.2181611 55.8097357,62.458929 C56.9661087,60.1305541 57.8829215,57.690492 58.546023,55.1764056 L42.467809,55.1764056 L46.9137706,38.9930203 L86.6000409,38.9930203 L82.4531712,54.2701361 C80.9455303,60.4358348 78.7773515,66.4205981 75.9863179,72.1204101 C73.9286877,76.3157404 70.9011691,79.9593497 67.1550214,82.7488484 C63.2092749,85.3518774 58.7324229,87.0396415 54.0515599,87.6888268 C47.5556892,88.6181872 40.9982649,89.048304 34.4367856,88.9754059 C28.5139483,89.0244662 22.5955568,88.6363617 16.7297329,87.814248 C12.4798122,87.3096625 8.44237977,85.6751846 5.03685385,83.0806078 C2.19616282,80.4928575 0.441295114,76.9232082 0.126087141,73.0914132 C-0.297746541,67.3351392 0.349109183,61.5501122 2.03380886,56.0300792 L8.09648381,33.4057065 C9.58469594,27.2187292 12.1544374,21.3440216 15.6869529,16.0530716 C18.5369528,11.9372349 22.264226,8.50607832 26.5997678,6.00723513 C30.9750671,3.54350197 35.7736255,1.92407598 40.7460093,1.23313646 C46.5374013,0.526033538 52.3683257,0.193584047 58.2024714,0.237858257 C63.8852187,0.237858257 68.9859492,0.237858257 73.6299583,0.695038893 C77.5880066,0.833845068 81.4607289,1.88468475 84.9469515,3.76583626 C87.9866806,5.57526917 90.1134057,8.59422348 90.7954119,12.0679129 C91.6040117,17.4313559 91.1203844,22.9105763 89.3848296,28.049006 L65.8980268,28.0530518 Z" id="Path-7" fill="#A80533"></path>
                <path d="M134.155663,35.1535121 C139.346896,35.4833765 144.512746,36.134655 149.623568,37.1036101 C152.843726,37.5619522 155.88072,38.8814023 158.414447,40.922889 C160.378391,42.807132 161.474439,45.4218333 161.441742,48.1447247 C161.409841,52.2614768 160.810031,56.3540891 159.659316,60.3065388 C158.996463,62.7340466 158.333611,65.1210959 157.638424,67.487916 C156.907845,69.8252781 155.905342,72.0685812 154.651546,74.1716542 C151.819657,79.0165606 147.435819,82.7618232 142.210937,84.8000925 C138.508879,86.2507339 134.655836,87.280783 130.724189,87.8708899 C125.239251,88.6874901 119.697701,89.062259 114.152878,88.9915893 L103.676575,88.9915893 C100.750745,88.9315868 97.8359884,88.6120628 94.9665323,88.0367696 C92.6032719,87.5464765 90.3436714,86.6469305 88.2895063,85.3786485 C86.4145479,84.1630201 84.9649689,82.3923598 84.1426366,80.3132489 C83.1233857,77.6753386 82.6996554,74.8444061 82.9018091,72.0233098 C83.1609411,67.9377608 83.8381168,63.8896023 84.9227008,59.9424126 L107.273762,59.9424126 C106.71662,61.6711883 106.463618,63.483681 106.526033,65.2991132 C106.592587,66.4888826 107.166732,67.5926426 108.102328,68.3294521 C109.337382,69.1492779 110.769321,69.6228794 112.249198,69.700994 C114.072042,69.700994 116.396067,69.9518364 119.298068,69.9518364 C121.607938,70.003004 123.918905,69.9341319 126.221643,69.7454983 C127.855043,69.6469575 129.4636,69.2976316 130.990947,68.7097616 C132.230942,68.1821293 133.316005,67.3466263 134.143538,66.2822538 C135.057476,65.0443974 135.706878,63.6313535 136.05126,62.1312155 C136.435338,60.7051952 136.685666,59.2464147 136.798989,57.773839 C136.914709,56.8751116 136.533991,55.9843285 135.804711,55.4474773 C134.795287,54.8185933 133.634741,54.4746927 132.445989,54.4521991 C130.910111,54.4521991 128.755841,54.1204397 126.059971,53.9950185 L120.918823,53.6228006 C115.664505,53.2505828 110.967952,52.8338606 106.901918,52.3362215 C103.421567,52.0803456 100.052104,50.9985928 97.0723014,49.1804614 C94.5299586,47.4670466 92.8401093,44.7479089 92.4282924,41.7077832 C91.935252,36.8137737 92.4426954,31.8705182 93.9197104,27.179149 C95.1993482,21.9056023 97.4336368,16.911452 100.511859,12.4441766 C102.99759,9.06715186 106.254275,6.3343354 110.01005,4.47385937 C113.924698,2.62970496 118.138512,1.50461761 122.450659,1.15221953 C127.12296,0.736845972 132.305874,0.529159193 137.999399,0.529159193 L147.162122,0.529159193 C149.946279,0.617159916 152.719305,0.922878183 155.455861,1.44352046 C157.752042,1.89367058 159.981998,2.63320532 162.092469,3.64446087 C163.957564,4.56156136 165.514164,6.00441069 166.570765,7.79549921 C167.685217,9.91853058 168.28214,12.2753507 168.313579,14.673438 C168.336223,18.1171625 167.847193,21.5451827 166.861774,24.8446957 L165.907913,28.4576364 L143.597269,28.4576364 C144.134763,26.7836045 144.372839,25.0277411 144.300539,23.2708614 C144.199412,22.1931945 143.620925,21.2176859 142.724244,20.6127404 C141.559309,19.957528 140.245029,19.6146911 138.9088,19.6174622 L132.995671,19.6174622 C130.499394,19.5842019 128.004107,19.7370178 125.530498,20.0746428 C123.943276,20.2956889 122.402279,20.7725256 120.967324,21.4866432 C119.953026,21.9919912 119.125133,22.8065505 118.602881,23.8130048 C118.07174,24.8481364 117.641327,25.9320228 117.317594,27.0496819 C116.887025,28.388322 116.731663,29.8003662 116.860872,31.2007203 C116.935519,32.0809267 117.390145,32.8847101 118.105742,33.4016607 C118.965086,33.9222592 119.933765,34.2353188 120.93499,34.3160219 L125.08186,34.813661 L134.155663,35.1535121 Z" id="Path-8" fill="#FCB813"></path>
                <path d="M214.065761,34.9431281 C219.253682,35.2860944 224.417962,35.9236671 229.533666,36.8527676 C232.750061,37.3499848 235.780624,38.6805888 238.324544,40.712505 C240.272042,42.6080149 241.364982,45.2153037 241.35184,47.9343407 C241.323733,52.0543175 240.709963,56.1493193 239.528996,60.0961548 C238.906561,62.5236626 238.243709,64.9107119 237.508104,67.277532 C236.775818,69.606977 235.789043,71.8484471 234.565686,73.9612702 C233.251874,76.1574514 231.617046,78.1443996 229.715546,79.8560683 C227.461617,81.8731693 224.8593,83.462178 222.036158,84.5452042 C218.328447,86.0296872 214.459648,87.0739008 210.508992,87.65646 C205.022964,88.4595243 199.48142,88.8207632 193.93768,88.736701 L183.501796,88.736701 C180.575984,88.6461166 177.662687,88.3132203 174.791752,87.7414228 C172.420772,87.3014841 170.154905,86.414546 168.114726,85.127806 C166.243547,83.9079517 164.795071,82.1386385 163.967857,80.0624064 C162.960459,77.4175159 162.546502,74.5832086 162.755322,71.7603298 C162.997905,67.6875029 163.675396,63.6523777 164.776213,59.7239369 L187.127275,59.7239369 C186.570133,61.4527126 186.317131,63.2652053 186.379545,65.0806375 C186.436112,66.2638442 186.994973,67.3664959 187.915423,68.1109764 C189.154997,68.915076 190.586613,69.3732065 192.062293,69.438014 C194.40494,69.6624106 196.758009,69.7596533 199.111163,69.7293149 L205.982194,69.7293149 C207.634695,69.6424103 209.260729,69.2772108 210.791916,68.6490739 C212.027016,68.1418005 213.112186,67.3271049 213.944507,66.2822538 C214.868994,64.9639689 215.529222,63.4786793 215.888605,61.9086939 C216.26037,60.5499576 216.5106,59.1607988 216.636335,57.7576556 C216.741561,56.8488995 216.364453,55.951216 215.642056,55.3908355 C214.623291,54.7883777 213.466364,54.4594857 212.283334,54.4360158 C210.707039,54.4360158 208.593186,54.1042564 205.856899,53.9383767 L200.756168,53.6066173 C195.50185,53.2020326 190.805298,52.7772188 186.739264,52.3200381 C183.258912,52.0641623 179.88945,50.9824094 176.909647,49.164278 C174.364386,47.4481483 172.674172,44.7240065 172.265638,41.6794623 C171.773486,36.7987971 172.280968,31.8689328 173.757056,27.1912865 C175.00063,21.9054586 177.237814,16.9048354 180.349205,12.4563142 C182.819389,9.08195973 186.061063,6.34894614 189.802936,4.48599691 C193.712521,2.62800717 197.928904,1.50223383 202.243545,1.16435707 C206.927972,0.759772434 212.11358,0.541296732 217.751867,0.541296732 L226.950966,0.541296732 C229.738014,0.54609305 232.517192,0.837576443 235.244705,1.41115369 C237.549366,1.82847857 239.783619,2.56943835 241.881314,3.6120941 C243.762293,4.50587521 245.325017,5.9544009 246.359609,7.76313244 C247.505508,9.86563248 248.117604,12.2178322 248.142194,14.6127503 C248.152431,18.0717764 247.649814,21.5131873 246.650618,24.8244664 L245.737175,28.4374072 L223.386113,28.4374072 C223.942542,26.7677272 224.181092,25.0083694 224.089383,23.2506322 C224.006453,22.1563302 223.425113,21.1610894 222.513088,20.5520527 C221.362949,19.8965205 220.061568,19.5534138 218.738062,19.5567745 L212.804724,19.5567745 C210.294596,19.5042199 207.784375,19.6571225 205.299133,20.0139551 C203.72166,20.2149456 202.191979,20.6929378 200.780419,21.4259555 C199.746844,21.9254872 198.89789,22.7398861 198.355349,23.7523172 C197.85199,24.7998639 197.422511,25.8814001 197.070062,26.9889942 C196.636162,28.3269194 196.480725,29.7396506 196.613341,31.1400326 C196.702489,32.0365686 197.170204,32.8522124 197.898628,33.3814314 C198.747598,33.8828624 199.694775,34.1947651 200.675333,34.2957927 C201.835325,34.2957927 203.165071,34.6275521 204.822202,34.7529733 L214.065761,34.9431281 Z" id="Path-9" fill="#221F1F"></path>
                <polygon id="Path-10" fill="#221F1F" points="281.575667 88.368529 258.105032 88.368529 276.183928 20.5844195 253.626736 20.5844195 259.163979 0.241904103 328.872616 0.241904103 323.355581 20.5803736 299.634355 20.5803736"></polygon>
                <path d="M349.166409,88.8661681 C343.820587,88.8974749 338.481145,88.49154 333.201365,87.6524142 C329.038435,87.0565261 325.090068,85.4294208 321.714617,82.9187739 C318.691418,80.4668918 316.658196,77.0014774 315.991452,73.1642384 C315.244748,67.6758632 315.72657,62.0899542 317.402034,56.8109275 L324.038643,32.15554 C325.395878,26.197797 327.902944,20.5629088 331.418939,15.56757 C334.361916,11.5957776 338.106067,8.28757774 342.408548,5.85753882 C346.770224,3.5000345 351.516744,1.93956118 356.425452,1.24931984 C361.907619,0.396009177 367.448767,-0.0206711023 372.996764,0.00319916962 C378.330914,-0.0411549413 383.658923,0.375768062 388.92139,1.24931984 C393.098501,1.80989858 397.064912,3.42339487 400.448556,5.93845574 C403.46515,8.3707236 405.486836,11.8251512 406.131303,15.6484869 C406.941103,21.2101521 406.472488,26.8834573 404.761139,32.2364569 L398.209408,56.8109275 C396.818664,62.6849903 394.313127,68.2367754 390.829112,73.1642384 C387.899173,77.1597705 384.152907,80.4850106 379.839503,82.9187739 C375.477802,85.3007076 370.734377,86.9026067 365.822598,87.6524142 C360.337204,88.4737898 354.797698,88.879527 349.251287,88.8661681 M354.723861,68.6935782 C357.327601,68.7137386 359.930457,68.5894755 362.520461,68.3213604 C364.484128,68.0986059 366.378279,67.4615316 368.077914,66.4521794 C369.795295,65.3609321 371.219161,63.864787 372.224783,62.0948029 C373.507984,59.6363796 374.482706,57.0286174 375.126784,54.3308237 L380.102219,34.4495349 C380.851732,31.9427532 381.259596,29.3461268 381.314754,26.7300601 C381.348335,25.1863002 380.766605,23.692663 379.698041,22.5790217 C378.390353,21.4997428 376.783729,20.8474106 375.094449,20.7098407 C372.589715,20.4209976 370.069667,20.2858835 367.54844,20.3052561 C364.957445,20.291558 362.367797,20.4266414 359.792258,20.7098407 C357.86781,20.9323485 356.01448,21.5700711 354.360101,22.5790217 C352.675886,23.6232779 351.256439,25.0441515 350.213231,26.7300601 C348.859511,29.1586631 347.828231,31.7537378 347.145518,34.4495349 L341.919492,54.2499068 C341.2412,56.7834301 340.878727,59.3912405 340.840336,62.0138859 C340.799059,63.627921 341.394383,65.1933085 342.497467,66.3712624 C343.761029,67.4432068 345.32573,68.0962924 346.975763,68.2404434 C349.467846,68.5158287 351.974283,68.6401281 354.481355,68.6126613" id="Shape-3" fill="#221F1F"></path>
                <path d="M420.366464,0.452288113 L465.678897,0.452288113 C470.034295,0.461869651 474.37926,0.879058781 478.657063,1.69840878 C481.759933,2.26386546 484.637169,3.70392971 486.950802,5.84944712 C489.08404,8.00170583 490.340444,10.8718419 490.475237,13.9006813 C490.7161,18.4359821 490.139719,22.9776605 488.773646,27.3086161 C487.819786,31.0024738 486.865925,34.2836552 485.912064,37.1885728 C485.004975,39.9401299 483.675476,42.5335538 481.971325,44.8756809 C480.211423,47.201839 478.014705,49.1616321 475.504472,50.6450577 C472.18411,52.4926015 468.583643,53.7828016 464.846289,54.4643367 L464.555281,55.2128182 C468.469407,54.9850399 472.283788,56.5016621 474.974998,59.3557649 C477.226081,62.7469685 477.678867,67.0255571 476.187533,70.8136017 L471.503106,88.578913 L447.992053,88.578913 L451.269939,76.1257979 C452.296424,73.5543866 452.296424,70.6864336 451.269939,68.1150222 C450.316078,66.092099 448.036513,65.0442248 444.512078,65.0442248 L426.324053,65.0442248 L420.103748,88.4575376 L396.60482,88.4575376 L420.366464,0.452288113 Z M450.223117,44.8675892 C452.239797,44.9303498 454.253915,44.6778201 456.192831,44.1191076 C457.586703,43.6763155 458.814916,42.8233159 459.717266,41.6713706 C460.668313,40.4279522 461.384667,39.0212247 461.831119,37.5203322 C462.368676,35.7765725 462.950693,33.6605948 463.613545,31.127895 C464.120849,29.509758 464.440898,27.8386724 464.567406,26.1474582 C464.644269,25.0494826 464.399887,23.9528763 463.864136,22.991698 C463.252308,22.1548233 462.349705,21.5775001 461.33398,21.3733595 C459.801531,20.9998547 458.226182,20.8325011 456.649553,20.8757204 L438.404943,20.8757204 L432.103803,44.9525519 L450.223117,44.8675892 Z" id="Shape-4" fill="#221F1F"></path>
                <polygon id="Path-11" fill="#221F1F" points="516.407319 35.6026011 554.020154 35.6026011 549.707572 51.9559119 512.094736 51.9559119 507.491145 69.1426672 548.377825 69.1426672 543.196259 88.4454 478.794483 88.4454 502.430832 0.197399794 566 0.197399794 560.858852 19.5001327 520.76032 19.5001327"></polygon>
            </g>
            <line x1="252" y1="56" x2="252" y2="234" id="Path-12" stroke="#414244" stroke-width="0.15"></line>
        </g>
    </g>
</svg>